<svg width="24" height="25" viewBox="0 0 24 25" fill="none" xmlns="http://www.w3.org/2000/svg">
<path d="M2 20C2 18.6739 2.52678 17.4021 3.46447 16.4645C4.40215 15.5268 5.67392 15 7 15H17C18.3261 15 19.5979 15.5268 20.5355 16.4645C21.4732 17.4021 22 18.6739 22 20C22 20.663 21.7366 21.2989 21.2678 21.7678C20.7989 22.2366 20.163 22.5 19.5 22.5H4.5C3.83696 22.5 3.20107 22.2366 2.73223 21.7678C2.26339 21.2989 2 20.663 2 20Z" stroke="black" stroke-width="1.875" stroke-linejoin="round"/>
<path d="M12 10C14.0711 10 15.75 8.32107 15.75 6.25C15.75 4.17893 14.0711 2.5 12 2.5C9.92893 2.5 8.25 4.17893 8.25 6.25C8.25 8.32107 9.92893 10 12 10Z" stroke="black" stroke-width="1.875"/>
</svg>
